HIERARCHY
ROOT Hips
{
	OFFSET 0.000000 97.167313 0.000000
	CHANNELS 6 Xposition Yposition Zposition Xrotation Yrotation Zrotation
	JOINT Spine
	{
		OFFSET 0.000000 13.784798 0.064400
		CHANNELS 3 Xrotation Yrotation Zrotation
		JOINT Spine1
		{
			OFFSET 0.000000 12.037903 0.404700
			CHANNELS 3 Xrotation Yrotation Zrotation
			JOINT Spine2
			{
				OFFSET 0.000000 17.795601 0.420200
				CHANNELS 3 Xrotation Yrotation Zrotation
				JOINT Neck
				{
					OFFSET 0.000000 39.131302 11.954600
					CHANNELS 3 Xrotation Yrotation Zrotation
					JOINT Head
					{
						OFFSET 0.000000 14.456192 15.627699
						CHANNELS 3 Xrotation Yrotation Zrotation
						JOINT HeadTop_End
						{
							OFFSET 0.000000 15.703506 7.603401
							CHANNELS 3 Xrotation Yrotation Zrotation
							End Site
							{
								OFFSET 0.000000 17.447403 0.000000
							}
						}
					}
				}
				JOINT LeftShoulder
				{
					OFFSET 17.399500 24.608795 1.168800
					CHANNELS 3 Xrotation Yrotation Zrotation
					JOINT LeftArm
					{
						OFFSET 18.980635 5.765305 1.818600
						CHANNELS 3 Xrotation Yrotation Zrotation
						JOINT LeftForeArm
						{
							OFFSET 49.290169 0.000000 0.000000
							CHANNELS 3 Xrotation Yrotation Zrotation
							JOINT LeftHand
							{
								OFFSET 31.562012 0.000000 0.000000
								CHANNELS 3 Xrotation Yrotation Zrotation
								JOINT LeftHandThumb1
								{
									OFFSET 6.133995 -4.388519 7.076070
									CHANNELS 3 Xrotation Yrotation Zrotation
									JOINT LeftHandThumb2
									{
										OFFSET 6.037666 -3.485840 3.485847
										CHANNELS 3 Xrotation Yrotation Zrotation
										JOINT LeftHandThumb3
										{
											OFFSET 6.496506 -3.750763 3.750761
											CHANNELS 3 Xrotation Yrotation Zrotation
											JOINT LeftHandThumb4
											{
												OFFSET 5.616882 -3.242905 3.242910
												CHANNELS 3 Xrotation Yrotation Zrotation
												End Site
												{
													OFFSET -1.254608 7.132141 0.375429
												}
											}
										}
									}
								}
								JOINT LeftHandPinky1
								{
									OFFSET 18.920792 -0.453171 -11.426712
									CHANNELS 3 Xrotation Yrotation Zrotation
									JOINT LeftHandPinky2
									{
										OFFSET 4.919586 0.000000 0.000000
										CHANNELS 3 Xrotation Yrotation Zrotation
										JOINT LeftHandPinky3
										{
											OFFSET 5.233047 0.000000 0.000000
											CHANNELS 3 Xrotation Yrotation Zrotation
											JOINT LeftHandPinky4
											{
												OFFSET 5.571716 0.000000 0.000000
												CHANNELS 3 Xrotation Yrotation Zrotation
												End Site
												{
													OFFSET -3.459808 4.342407 -0.466164
												}
											}
										}
									}
								}
								JOINT LeftHandRing1
								{
									OFFSET 22.726120 -0.094986 -6.500475
									CHANNELS 3 Xrotation Yrotation Zrotation
									JOINT LeftHandRing2
									{
										OFFSET 6.408615 0.000000 0.000000
										CHANNELS 3 Xrotation Yrotation Zrotation
										JOINT LeftHandRing3
										{
											OFFSET 6.150223 0.000000 0.000000
											CHANNELS 3 Xrotation Yrotation Zrotation
											JOINT LeftHandRing4
											{
												OFFSET 6.145386 0.000000 0.000000
												CHANNELS 3 Xrotation Yrotation Zrotation
												End Site
												{
													OFFSET -3.671402 4.923981 -0.202372
												}
											}
										}
									}
								}
								JOINT LeftHandMiddle1
								{
									OFFSET 23.373947 0.000000 0.000001
									CHANNELS 3 Xrotation Yrotation Zrotation
									JOINT LeftHandMiddle2
									{
										OFFSET 6.996567 0.000000 0.000000
										CHANNELS 3 Xrotation Yrotation Zrotation
										JOINT LeftHandMiddle3
										{
											OFFSET 7.015945 0.000000 0.000000
											CHANNELS 3 Xrotation Yrotation Zrotation
											JOINT LeftHandMiddle4
											{
												OFFSET 7.721573 0.000000 0.000000
												CHANNELS 3 Xrotation Yrotation Zrotation
												End Site
												{
													OFFSET -4.651108 6.158463 0.251582
												}
											}
										}
									}
								}
								JOINT LeftHandIndex1
								{
									OFFSET 21.310577 -0.490082 6.209344
									CHANNELS 3 Xrotation Yrotation Zrotation
									JOINT LeftHandIndex2
									{
										OFFSET 7.536453 0.000000 0.000000
										CHANNELS 3 Xrotation Yrotation Zrotation
										JOINT LeftHandIndex3
										{
											OFFSET 7.512344 0.000000 0.000000
											CHANNELS 3 Xrotation Yrotation Zrotation
											JOINT LeftHandIndex4
											{
												OFFSET 10.212402 0.000000 0.000001
												CHANNELS 3 Xrotation Yrotation Zrotation
												End Site
												{
													OFFSET -5.180801 8.690506 1.388433
												}
											}
										}
									}
								}
							}
						}
					}
				}
				JOINT RightShoulder
				{
					OFFSET -17.399500 24.608795 1.168800
					CHANNELS 3 Xrotation Yrotation Zrotation
					JOINT RightArm
					{
						OFFSET -18.980635 5.765305 1.818600
						CHANNELS 3 Xrotation Yrotation Zrotation
						JOINT RightForeArm
						{
							OFFSET -49.290169 0.000000 0.000000
							CHANNELS 3 Xrotation Yrotation Zrotation
							JOINT RightHand
							{
								OFFSET -31.562012 0.000000 0.000000
								CHANNELS 3 Xrotation Yrotation Zrotation
								JOINT RightHandThumb1
								{
									OFFSET -6.133995 -4.388519 7.076070
									CHANNELS 3 Xrotation Yrotation Zrotation
									JOINT RightHandThumb2
									{
										OFFSET -6.037666 -3.485840 3.485847
										CHANNELS 3 Xrotation Yrotation Zrotation
										JOINT RightHandThumb3
										{
											OFFSET -6.496506 -3.750763 3.750761
											CHANNELS 3 Xrotation Yrotation Zrotation
											JOINT RightHandThumb4
											{
												OFFSET -5.616882 -3.242905 3.242910
												CHANNELS 3 Xrotation Yrotation Zrotation
												End Site
												{
													OFFSET 1.254608 7.132141 0.375429
												}
											}
										}
									}
								}
								JOINT RightHandIndex1
								{
									OFFSET -21.310577 -0.490082 6.209344
									CHANNELS 3 Xrotation Yrotation Zrotation
									JOINT RightHandIndex2
									{
										OFFSET -7.536453 0.000000 0.000000
										CHANNELS 3 Xrotation Yrotation Zrotation
										JOINT RightHandIndex3
										{
											OFFSET -7.512344 0.000000 0.000000
											CHANNELS 3 Xrotation Yrotation Zrotation
											JOINT RightHandIndex4
											{
												OFFSET -10.212402 0.000000 0.000001
												CHANNELS 3 Xrotation Yrotation Zrotation
												End Site
												{
													OFFSET 5.180801 8.690506 1.388433
												}
											}
										}
									}
								}
								JOINT RightHandMiddle1
								{
									OFFSET -23.373947 0.000000 0.000001
									CHANNELS 3 Xrotation Yrotation Zrotation
									JOINT RightHandMiddle2
									{
										OFFSET -6.996567 0.000000 0.000000
										CHANNELS 3 Xrotation Yrotation Zrotation
										JOINT RightHandMiddle3
										{
											OFFSET -7.015945 0.000000 0.000000
											CHANNELS 3 Xrotation Yrotation Zrotation
											JOINT RightHandMiddle4
											{
												OFFSET -7.721573 0.000000 0.000000
												CHANNELS 3 Xrotation Yrotation Zrotation
												End Site
												{
													OFFSET 4.651108 6.158463 0.251582
												}
											}
										}
									}
								}
								JOINT RightHandRing1
								{
									OFFSET -22.726120 -0.094986 -6.500475
									CHANNELS 3 Xrotation Yrotation Zrotation
									JOINT RightHandRing2
									{
										OFFSET -6.408615 0.000000 0.000000
										CHANNELS 3 Xrotation Yrotation Zrotation
										JOINT RightHandRing3
										{
											OFFSET -6.150223 0.000000 0.000000
											CHANNELS 3 Xrotation Yrotation Zrotation
											JOINT RightHandRing4
											{
												OFFSET -6.145386 0.000000 0.000000
												CHANNELS 3 Xrotation Yrotation Zrotation
												End Site
												{
													OFFSET 3.671402 4.923981 -0.202372
												}
											}
										}
									}
								}
								JOINT RightHandPinky1
								{
									OFFSET -18.920792 -0.453171 -11.426712
									CHANNELS 3 Xrotation Yrotation Zrotation
									JOINT RightHandPinky2
									{
										OFFSET -4.919586 0.000000 0.000000
										CHANNELS 3 Xrotation Yrotation Zrotation
										JOINT RightHandPinky3
										{
											OFFSET -5.233047 0.000000 0.000000
											CHANNELS 3 Xrotation Yrotation Zrotation
											JOINT RightHandPinky4
											{
												OFFSET -5.571716 0.000000 0.000000
												CHANNELS 3 Xrotation Yrotation Zrotation
												End Site
												{
													OFFSET 3.459808 4.342407 -0.466164
												}
											}
										}
									}
								}
							}
						}
					}
				}
			}
		}
	}
	JOINT LeftUpLeg
	{
		OFFSET 19.899099 -7.885101 -3.429500
		CHANNELS 3 Xrotation Yrotation Zrotation
		JOINT LeftLeg
		{
			OFFSET 1.745560 -36.997807 10.304700
			CHANNELS 3 Xrotation Yrotation Zrotation
			JOINT LeftFoot
			{
				OFFSET -1.745558 -29.803308 -13.615400
				CHANNELS 3 Xrotation Yrotation Zrotation
				JOINT LeftToeBase
				{
					OFFSET 1.181900 -18.539904 15.226099
					CHANNELS 3 Xrotation Yrotation Zrotation
					JOINT LeftToe_End
					{
						OFFSET -0.863701 1.402801 16.534700
						CHANNELS 3 Xrotation Yrotation Zrotation
						End Site
						{
							OFFSET 0.000000 16.616566 0.000000
						}
					}
				}
			}
		}
	}
	JOINT RightUpLeg
	{
		OFFSET -19.899099 -7.885101 -3.429500
		CHANNELS 3 Xrotation Yrotation Zrotation
		JOINT RightLeg
		{
			OFFSET -1.745560 -36.997807 10.304700
			CHANNELS 3 Xrotation Yrotation Zrotation
			JOINT RightFoot
			{
				OFFSET 1.745558 -29.803308 -13.615400
				CHANNELS 3 Xrotation Yrotation Zrotation
				JOINT RightToeBase
				{
					OFFSET -1.181900 -18.539904 15.226099
					CHANNELS 3 Xrotation Yrotation Zrotation
					JOINT RightToe_End
					{
						OFFSET 0.863701 1.402801 16.534700
						CHANNELS 3 Xrotation Yrotation Zrotation
						End Site
						{
							OFFSET 0.000000 16.616566 0.000000
						}
					}
				}
			}
		}
	}
}
MOTION
Frames: 5
Frame Time: 0.033333
4.211967 6.971176 93.551003 100.033742 4.844213 -7.418417 -18.578050 12.112829 -0.432254 1.066605 0.041328 -7.473531 1.174725 0.191027 -7.435239 -15.836830 -5.094951 -1.867540 -14.965158 -29.798824 -5.767214 0.000002 -0.000000 -0.000000 38.531727 -20.449810 63.785060 -62.879145 -24.274113 7.326877 126.419247 -41.546077 137.656206 -4.177044 23.291369 -2.121747 -14.425803 6.519616 19.708284 24.390691 -8.384935 9.033323 -14.208825 -36.633183 -19.285452 0.000001 -0.000001 0.000001 -53.538540 4.381480 22.808928 0.004203 1.416510 -10.418500 0.437731 2.031846 -15.459032 0.000003 0.000000 -0.000006 25.677094 2.250273 3.642402 -0.573129 2.715260 -20.760539 -0.140088 2.232415 -15.633649 -0.000002 0.000001 -0.000002 17.751587 -5.845363 5.519099 -1.720277 3.381945 -27.616934 0.440195 2.180333 -11.295214 -0.000000 -0.000000 0.000004 5.267339 -12.823412 -1.538346 0.015139 2.808455 -21.380114 0.066380 1.208227 -8.353224 0.000002 0.000001 0.000002 6.405526 10.286605 -41.585460 -48.266901 4.950776 -5.061478 -15.101340 21.019383 -5.843997 -18.065734 -12.354006 1.129784 -18.237968 17.931774 1.990531 30.447901 -2.745150 2.610801 12.981797 -14.578200 -7.430162 0.000001 -0.000001 -0.000000 4.836365 19.236693 -19.802383 1.922879 -5.768987 46.459087 0.296615 -2.153087 16.421602 -0.000000 0.000000 0.000001 18.573195 14.025900 -39.349792 2.599308 -8.591900 68.060745 0.854774 -3.171909 24.417335 0.000001 0.000000 -0.000004 27.986265 2.804034 -30.498164 1.045837 -5.618646 43.032087 0.612042 -3.916287 29.740068 -0.000001 -0.000001 -0.000000 -46.588030 -8.034334 -43.464544 0.346789 -2.665765 19.798072 1.047287 -3.453549 27.228921 0.000003 0.000003 0.000003 -35.109126 11.441599 29.355473 24.920111 44.838867 -0.269183 36.415283 0.512417 -1.297050 15.844027 5.708228 14.089814 0.000001 0.000001 0.000001 -15.396739 -10.299866 -7.183479 17.378844 -68.555688 6.574554 47.071963 0.758184 -5.440158 9.848169 -1.724695 -12.573822 -0.000003 -0.000001 -0.000002 
3.739212 6.965126 94.439392 101.492561 8.403893 -8.380128 -19.482225 10.483703 -1.922883 1.198051 -0.175695 -7.396754 1.282560 -0.022450 -7.368548 -11.742146 -4.885669 -2.454898 -15.812023 -33.052436 -6.437338 -0.000002 0.000000 0.000000 39.343720 -25.558525 66.855667 -59.591918 -22.747979 9.443623 134.595530 -42.499459 141.212781 -5.148207 23.670634 2.434654 -14.340138 6.637244 19.795244 24.286218 -8.379068 9.051324 -14.613584 -36.995511 -19.840224 -0.000000 0.000001 -0.000001 -52.893842 5.808582 22.718205 0.010311 1.455554 -10.704465 0.445538 2.085326 -15.854058 -0.000003 0.000001 -0.000000 25.461910 2.412924 3.669338 -0.576445 2.696860 -20.628771 -0.140332 2.252711 -15.771236 0.000002 0.000003 0.000005 17.641629 -5.652452 5.296692 -1.724416 3.342439 -27.358063 0.433786 2.205422 -11.460729 0.000002 -0.000001 0.000008 5.240389 -12.572365 -1.998333 0.013385 2.804214 -21.348202 0.066146 1.226003 -8.479775 -0.000001 0.000001 -0.000001 1.840538 4.600533 -39.896880 -49.058947 10.576556 1.449500 -6.263736 18.322901 -6.921360 -21.039180 -5.907761 -8.601090 -18.229860 17.806687 1.821784 29.738504 -1.001407 2.209557 12.907906 -13.806601 -6.976993 -0.000001 -0.000001 -0.000000 4.603994 18.443843 -13.524452 1.912418 -5.758645 46.354926 0.289042 -2.127239 16.219640 -0.000001 -0.000002 0.000003 18.141677 13.191231 -31.407583 2.599247 -8.591867 68.060390 0.854757 -3.171889 24.417211 0.000001 0.000000 -0.000004 27.505732 1.662854 -20.892393 1.027102 -5.596739 42.840517 0.595580 -3.887441 29.502032 -0.000001 0.000002 -0.000005 -47.808094 -9.708675 -28.422065 0.226956 -2.303651 17.035229 0.829710 -2.993903 23.363072 -0.000003 -0.000002 0.000002 -38.884752 10.849881 29.727493 26.526604 44.055133 -1.961302 37.307887 0.695286 0.709519 15.497879 5.655215 13.683540 -0.000001 0.000000 0.000002 -17.482800 -9.931403 -8.498558 16.910700 -63.649782 5.027617 49.868929 1.329541 -2.705394 10.115553 -1.473845 -13.293096 -0.000001 0.000001 -0.000003 
3.227132 7.283447 95.781288 101.015178 11.167521 -9.189494 -18.356512 8.525458 -2.478465 1.186173 -0.402874 -7.578321 1.251697 -0.259343 -7.563325 -7.487994 -4.950880 -2.313759 -14.991693 -36.181076 -9.535514 0.000003 -0.000001 -0.000003 38.540545 -29.300699 69.877125 -55.802055 -20.704783 9.365951 142.237023 -42.067804 144.253336 -6.273164 24.769363 7.794697 -14.203042 7.942520 20.542412 24.188794 -8.373568 9.068411 -16.753359 -39.130092 -21.892066 -0.000001 0.000003 0.000002 -52.040062 6.704025 25.829689 0.021800 1.521015 -11.185148 0.463506 2.170295 -16.498599 0.000003 0.000003 -0.000000 25.265997 2.439760 4.649286 -0.579670 2.679153 -20.502158 -0.140647 2.271306 -15.896647 -0.000002 -0.000001 0.000005 17.540527 -5.507240 5.363725 -1.728268 3.305133 -27.113686 0.427890 2.228783 -11.613881 0.000000 0.000000 0.000008 5.217937 -12.308370 -2.650514 0.011747 2.800204 -21.318161 0.065968 1.242592 -8.597738 -0.000002 0.000001 0.000001 -0.816617 -0.082650 -38.909211 -52.532508 14.541251 7.608891 -10.845842 18.111618 -3.253174 -21.321764 0.876848 -16.239091 -17.018822 16.033347 1.161059 32.164758 -6.807740 3.639492 13.237930 -16.668488 -8.476068 -0.000001 -0.000001 0.000001 4.441443 17.398971 -5.496215 1.911944 -5.758193 46.350118 0.288698 -2.126065 16.210315 -0.000000 -0.000003 0.000003 17.958838 12.735056 -27.196816 2.602929 -8.593955 68.085026 0.855267 -3.173009 24.426896 0.000000 0.000000 -0.000004 27.487060 1.605169 -20.421337 1.026336 -5.595831 42.832625 0.595010 -3.886408 29.493706 -0.000001 0.000001 -0.000002 -47.413636 -9.060705 -33.923316 0.265036 -2.425216 17.957648 0.898688 -3.148573 24.650131 -0.000003 0.000002 0.000001 -40.769983 11.110262 30.699969 28.289315 43.343387 -3.637036 37.820550 0.892428 2.521569 15.280928 5.879199 12.875380 -0.000004 0.000001 0.000002 -17.981494 -9.812995 -8.772350 15.244313 -56.896849 3.227824 51.321659 1.398195 -1.023137 12.026669 -1.830165 -18.984205 0.000001 -0.000003 0.000003 
2.712438 7.830887 97.437859 98.711827 13.026657 -9.666479 -15.363136 7.075930 -2.515409 1.164985 -0.533848 -7.892971 1.220715 -0.414697 -7.884295 -3.858040 -5.217549 -1.520050 -15.128497 -38.570778 -14.595914 0.000001 0.000001 -0.000002 36.186035 -33.410195 70.569740 -51.946707 -21.365600 6.562764 147.012158 -40.875178 144.251683 -7.004484 25.089049 10.935920 -13.184380 2.073811 16.043611 24.485199 -8.162358 8.021635 3.306261 -17.195177 -6.342581 -0.000001 -0.000000 0.000000 -51.108315 7.304503 29.716678 0.048507 1.656128 -12.180773 0.509316 2.338784 -17.806764 -0.000000 0.000002 0.000001 25.091029 2.397325 6.072462 -0.582290 2.663756 -20.391871 -0.140675 2.289234 -16.018320 0.000000 -0.000002 -0.000000 17.448398 -5.414362 5.753044 -1.731719 3.270511 -26.886845 0.422495 2.250412 -11.755422 -0.000000 0.000001 0.000007 5.193727 -12.135234 -2.719302 0.010221 2.796485 -21.290241 0.065840 1.257940 -8.706929 -0.000001 0.000003 0.000001 -1.530885 -2.756615 -35.826900 -57.462682 15.653325 10.204671 4.234919 20.830170 -5.356640 -21.248556 -0.709502 -19.216636 -20.835366 22.255534 5.101364 32.337274 -7.203180 3.747072 13.267535 -16.889816 -8.576861 -0.000002 -0.000001 -0.000000 4.609181 18.466142 -13.698094 1.911846 -5.758081 46.349134 0.288654 -2.125954 16.209424 -0.000002 -0.000005 -0.000006 18.096689 13.086842 -30.437601 2.598978 -8.591730 68.058573 0.854733 -3.171786 24.416471 -0.000000 0.000000 -0.000004 27.427635 1.409630 -18.832443 1.026152 -5.595600 42.830737 0.594912 -3.886241 29.492337 -0.000000 0.000002 -0.000001 -47.910796 -9.903786 -26.823198 0.225337 -2.298228 16.994286 0.826712 -2.986995 23.305997 0.000001 -0.000002 0.000002 -41.230744 11.681445 32.409244 30.832386 41.907524 -4.941113 37.103982 0.828849 3.379797 15.114691 6.264823 11.844056 -0.000000 0.000000 -0.000000 -17.142223 -9.607390 -7.976794 13.818154 -49.200178 1.829833 51.580523 1.072169 -0.131379 13.110367 -2.572278 -24.804045 0.000002 -0.000000 -0.000001 
2.252559 8.389725 99.173470 95.983993 14.067596 -10.197630 -12.318899 6.274374 -2.008528 1.229277 -0.589276 -8.225224 1.282574 -0.499937 -8.216784 -0.942564 -5.466337 -0.649024 -17.928021 -40.001037 -19.542122 -0.000001 -0.000003 -0.000003 31.290432 -38.860331 66.046912 -47.721548 -25.756444 2.208898 148.644765 -39.703825 141.150736 -7.613493 24.138647 11.404197 -13.087866 1.971973 15.981318 24.438612 -8.138392 7.935963 3.622663 -16.925176 -6.241465 -0.000000 -0.000000 0.000000 -50.240259 7.741764 32.663614 0.078258 1.793578 -13.197422 0.561124 2.510906 -19.154224 0.000004 -0.000000 -0.000000 24.930730 2.400364 7.060467 -0.584637 2.649755 -20.291450 -0.140615 2.305865 -16.131396 0.000001 -0.000001 0.000003 17.365011 -5.324103 6.073453 -1.734644 3.239076 -26.680561 0.417636 2.270375 -11.886295 0.000001 0.000000 0.000004 5.171877 -11.976256 -2.782464 0.008816 2.793077 -21.264604 0.065745 1.272045 -8.807211 -0.000001 0.000003 0.000002 -1.268747 -5.403930 -33.927394 -62.219547 14.969782 14.489500 5.816475 24.673116 -6.908227 -20.524969 1.045150 -19.435341 -19.445070 19.954533 3.306210 30.733338 -3.436247 2.776310 13.018318 -14.906787 -7.608310 0.000001 -0.000001 0.000001 4.581235 18.342213 -12.734042 1.912038 -5.758270 46.351201 0.288751 -2.126334 16.212330 0.000000 -0.000002 0.000003 18.109123 13.116128 -30.709480 2.599324 -8.591902 68.060964 0.854776 -3.171916 24.417440 0.000001 -0.000000 -0.000004 27.484724 1.597782 -20.361188 1.026683 -5.596255 42.836286 0.595231 -3.886784 29.496804 -0.000000 -0.000000 -0.000002 -47.744740 -9.594554 -29.368543 0.229509 -2.312003 17.098516 0.834323 -3.004522 23.451258 -0.000001 -0.000000 0.000002 -41.474746 12.077065 35.131604 33.965769 39.790015 -6.392526 35.720216 0.612258 3.508151 14.934340 6.501709 11.042544 -0.000001 0.000001 -0.000000 -15.755640 -8.944633 -6.267758 12.774694 -42.085324 0.985386 51.386959 0.647482 0.623133 13.240463 -3.416234 -31.771486 0.000001 0.000000 -0.000000 
